<?xml version="1.0" standalone="no"?>
<!DOCTYPE svg PUBLIC "-//W3C//DTD SVG 20010904//EN"
 "http://www.w3.org/TR/2001/REC-SVG-20010904/DTD/svg10.dtd">
<svg version="1.0" xmlns="http://www.w3.org/2000/svg"
 width="1280.000000pt" height="1267.000000pt" viewBox="0 0 1280.000000 1267.000000"
 preserveAspectRatio="xMidYMid meet">
<metadata>
Created by potrace 1.15, written by Peter Selinger 2001-2017
</metadata>
<g transform="translate(0.000000,1267.000000) scale(0.100000,-0.100000)"
fill="#000000" stroke="none">
<path d="M5640 12535 c-10 -12 -37 -15 -121 -15 -61 0 -110 -4 -114 -10 -3 -5
-39 -10 -80 -10 -41 0 -77 -4 -80 -10 -3 -5 -33 -10 -66 -10 -33 0 -59 -4 -59
-10 0 -6 -26 -10 -59 -10 -33 0 -63 -4 -66 -10 -3 -5 -28 -10 -56 -10 -27 0
-49 -4 -49 -10 0 -5 -18 -10 -40 -10 -22 0 -40 -4 -40 -10 0 -5 -18 -10 -39
-10 -22 0 -43 -4 -46 -10 -3 -5 -21 -10 -40 -10 -19 0 -37 -4 -40 -10 -3 -5
-24 -10 -46 -10 -21 0 -39 -4 -39 -10 0 -5 -18 -10 -39 -10 -22 0 -43 -4 -46
-10 -3 -5 -17 -10 -29 -10 -13 0 -29 -6 -36 -14 -6 -8 -18 -12 -26 -9 -8 3
-23 -2 -34 -12 -11 -10 -26 -15 -34 -12 -8 3 -20 -1 -26 -9 -7 -8 -23 -14 -36
-14 -12 0 -26 -4 -29 -10 -3 -5 -19 -10 -36 -10 -16 0 -29 -4 -29 -10 0 -5
-13 -10 -30 -10 -16 0 -30 -4 -30 -10 0 -5 -13 -10 -29 -10 -17 0 -33 -4 -36
-10 -3 -5 -15 -10 -25 -10 -11 0 -35 -9 -55 -20 -20 -11 -47 -20 -60 -20 -14
0 -25 -4 -25 -10 0 -5 -9 -10 -20 -10 -11 0 -20 -4 -20 -10 0 -5 -13 -10 -30
-10 -16 0 -30 -4 -30 -10 0 -5 -7 -10 -15 -10 -17 0 -50 -17 -77 -39 -10 -8
-18 -11 -18 -6 0 4 -7 2 -15 -5 -22 -18 -106 -60 -121 -60 -6 0 -38 -13 -69
-30 -31 -16 -63 -30 -71 -30 -8 0 -14 -4 -14 -10 0 -5 -8 -10 -18 -10 -10 0
-24 -9 -32 -20 -8 -11 -22 -20 -32 -20 -10 0 -18 -4 -18 -10 0 -5 -9 -10 -20
-10 -11 0 -20 -4 -20 -10 0 -5 -6 -10 -13 -10 -18 0 -75 -28 -82 -41 -4 -5
-10 -7 -14 -4 -5 2 -17 -5 -27 -16 -10 -11 -46 -33 -80 -49 -34 -16 -67 -37
-74 -45 -7 -8 -18 -15 -25 -15 -6 0 -20 -9 -30 -20 -10 -11 -23 -20 -30 -20
-7 0 -20 -9 -30 -20 -10 -11 -25 -20 -33 -20 -8 0 -23 -11 -34 -25 -11 -14
-23 -23 -27 -20 -5 2 -19 -7 -31 -20 -13 -14 -31 -25 -40 -25 -8 0 -22 -9 -30
-20 -8 -11 -21 -20 -28 -20 -8 0 -27 -13 -42 -30 -15 -16 -33 -30 -39 -30 -6
0 -25 -13 -43 -30 -17 -16 -36 -30 -42 -30 -7 0 -32 -20 -56 -45 -24 -25 -49
-45 -55 -45 -6 0 -37 -27 -70 -60 -33 -33 -64 -60 -70 -60 -13 0 -605 -592
-605 -605 0 -6 -27 -37 -60 -70 -33 -33 -60 -64 -60 -70 0 -6 -20 -31 -45 -55
-25 -24 -45 -49 -45 -55 0 -6 -14 -24 -30 -40 -17 -16 -30 -35 -30 -43 0 -8
-13 -27 -30 -42 -16 -15 -30 -34 -30 -42 0 -7 -9 -20 -20 -28 -11 -8 -20 -22
-20 -32 0 -10 -4 -18 -9 -18 -5 0 -16 -16 -25 -35 -10 -20 -26 -41 -37 -48
-10 -6 -19 -20 -19 -29 0 -10 -9 -23 -20 -30 -11 -7 -20 -20 -20 -29 0 -9 -9
-24 -20 -34 -11 -10 -20 -24 -20 -30 0 -7 -7 -18 -15 -25 -8 -7 -29 -41 -45
-75 -16 -34 -37 -68 -45 -75 -8 -7 -15 -18 -15 -25 0 -7 -7 -18 -15 -25 -8 -7
-13 -16 -10 -20 3 -5 1 -11 -4 -15 -13 -7 -41 -64 -41 -82 0 -7 -4 -13 -10
-13 -5 0 -10 -8 -10 -18 0 -10 -9 -24 -20 -32 -11 -8 -20 -22 -20 -32 0 -10
-4 -18 -10 -18 -5 0 -10 -9 -10 -20 0 -11 -4 -20 -10 -20 -5 0 -10 -7 -10 -15
0 -8 -9 -30 -20 -50 -11 -20 -20 -41 -20 -49 0 -15 -41 -98 -60 -121 -7 -8 -9
-15 -5 -15 4 0 2 -7 -5 -15 -24 -29 -60 -108 -60 -132 0 -13 -4 -23 -10 -23
-5 0 -10 -9 -10 -20 0 -11 -4 -20 -10 -20 -5 0 -10 -11 -10 -25 0 -13 -9 -40
-20 -60 -11 -20 -20 -44 -20 -55 0 -10 -4 -22 -10 -25 -5 -3 -10 -17 -10 -30
0 -13 -4 -27 -10 -30 -5 -3 -10 -19 -10 -36 0 -16 -4 -29 -10 -29 -5 0 -10
-13 -10 -30 0 -16 -4 -30 -10 -30 -5 0 -10 -13 -10 -29 0 -16 -6 -34 -14 -41
-8 -6 -12 -18 -9 -26 3 -8 -2 -23 -12 -34 -10 -11 -15 -26 -12 -34 3 -8 -1
-20 -9 -26 -8 -7 -14 -23 -14 -36 0 -12 -5 -26 -10 -29 -6 -3 -10 -24 -10 -46
0 -21 -4 -39 -10 -39 -5 0 -10 -18 -10 -40 0 -22 -4 -40 -10 -40 -5 0 -10 -18
-10 -39 0 -22 -4 -43 -10 -46 -5 -3 -10 -21 -10 -40 0 -19 -4 -37 -10 -40 -5
-3 -10 -24 -10 -46 0 -21 -4 -39 -10 -39 -5 0 -10 -22 -10 -50 0 -27 -4 -50
-10 -50 -6 0 -10 -26 -10 -59 0 -33 -4 -63 -10 -66 -5 -3 -10 -33 -10 -66 0
-33 -4 -59 -10 -59 -6 0 -10 -33 -10 -78 0 -44 -5 -83 -11 -89 -7 -7 -11 -49
-10 -116 2 -83 -1 -106 -13 -117 -14 -11 -16 -72 -16 -510 0 -430 2 -499 15
-510 12 -10 15 -37 15 -121 0 -66 4 -109 10 -109 6 0 10 -33 10 -79 0 -44 5
-83 10 -86 6 -3 10 -33 10 -66 0 -33 4 -59 10 -59 6 0 10 -26 10 -59 0 -33 5
-63 10 -66 6 -3 10 -26 10 -50 0 -24 5 -47 10 -50 6 -3 10 -24 10 -46 0 -21 5
-39 10 -39 6 0 10 -18 10 -39 0 -22 5 -43 10 -46 6 -3 10 -21 10 -40 0 -19 5
-37 10 -40 6 -3 10 -21 10 -40 0 -19 5 -37 10 -40 6 -3 10 -24 10 -46 0 -21 5
-39 10 -39 6 0 10 -13 10 -29 0 -16 6 -34 14 -41 8 -6 12 -18 9 -26 -3 -8 2
-23 12 -34 10 -11 15 -26 12 -34 -3 -8 1 -20 9 -26 8 -7 14 -23 14 -36 0 -12
5 -26 10 -29 6 -3 10 -17 10 -30 0 -13 5 -27 10 -30 6 -3 10 -19 10 -36 0 -16
5 -29 10 -29 6 0 10 -13 10 -30 0 -16 5 -30 10 -30 6 0 10 -13 10 -30 0 -16 5
-30 10 -30 6 0 10 -9 10 -19 0 -11 5 -23 10 -26 6 -3 10 -15 10 -25 0 -11 9
-35 20 -55 11 -20 20 -44 20 -55 0 -10 5 -22 10 -25 6 -3 10 -15 10 -26 0 -10
5 -19 10 -19 6 0 10 -9 10 -19 0 -10 7 -22 16 -25 8 -3 13 -10 10 -15 -3 -5 1
-14 9 -21 8 -7 15 -21 15 -31 0 -11 5 -19 10 -19 6 0 10 -9 10 -20 0 -11 5
-20 10 -20 6 0 10 -13 10 -30 0 -16 5 -30 10 -30 6 0 10 -6 10 -13 0 -16 61
-139 80 -162 18 -22 60 -106 60 -121 0 -6 7 -15 16 -18 8 -3 13 -10 10 -15 -3
-5 1 -14 9 -21 8 -7 15 -20 15 -29 0 -9 9 -23 20 -31 11 -8 20 -22 20 -32 0
-10 5 -18 10 -18 6 0 10 -9 10 -20 0 -11 5 -20 10 -20 6 0 10 -9 10 -20 0 -11
9 -25 20 -32 11 -7 20 -20 20 -29 0 -9 9 -24 20 -34 11 -10 20 -23 20 -30 0
-7 9 -20 20 -30 11 -10 20 -23 20 -30 0 -6 11 -22 25 -35 13 -12 22 -26 20
-30 -2 -4 7 -18 20 -30 14 -13 25 -29 25 -35 0 -7 9 -20 20 -30 11 -10 20 -23
20 -30 0 -6 14 -24 30 -40 17 -16 30 -35 30 -43 0 -7 13 -25 30 -39 16 -13 30
-31 30 -39 0 -7 20 -32 45 -55 25 -23 45 -48 45 -56 0 -8 27 -41 60 -73 33
-32 60 -64 60 -70 0 -15 596 -610 610 -610 6 0 38 -27 70 -60 32 -33 64 -60
70 -60 6 0 29 -18 50 -40 21 -22 45 -40 53 -40 8 0 29 -16 46 -35 17 -19 37
-35 45 -35 8 0 26 -13 39 -30 14 -16 32 -30 40 -30 8 0 22 -9 32 -20 10 -11
23 -20 30 -20 7 0 20 -9 30 -20 10 -11 23 -20 30 -20 7 0 20 -9 30 -20 10 -11
23 -20 30 -20 6 0 22 -11 35 -25 13 -14 29 -25 35 -25 7 0 20 -9 30 -20 10
-11 24 -20 30 -20 7 0 18 -7 25 -15 13 -15 107 -65 125 -65 6 0 17 -9 25 -20
8 -11 22 -20 32 -20 10 0 18 -4 18 -10 0 -5 9 -10 20 -10 11 0 20 -4 20 -10 0
-5 7 -10 16 -10 8 0 22 -7 31 -15 8 -8 19 -13 24 -9 5 3 12 -2 15 -10 3 -9 15
-16 25 -16 10 0 24 -9 31 -20 7 -11 21 -20 30 -20 10 0 18 -4 18 -10 0 -5 6
-10 14 -10 8 0 40 -13 71 -30 31 -16 63 -30 70 -30 7 0 39 -13 70 -30 31 -16
63 -30 71 -30 8 0 14 -4 14 -10 0 -5 9 -10 20 -10 11 0 20 -4 20 -9 0 -13 59
-41 87 -41 12 0 23 -4 23 -10 0 -5 9 -10 20 -10 11 0 20 -4 20 -10 0 -5 11
-10 25 -10 13 0 40 -9 60 -20 20 -11 44 -20 55 -20 10 0 22 -4 25 -10 3 -5 17
-10 30 -10 13 0 27 -5 30 -10 3 -6 19 -10 36 -10 16 0 29 -4 29 -10 0 -5 14
-10 30 -10 17 0 30 -4 30 -10 0 -5 12 -10 26 -10 14 0 32 -7 41 -15 8 -9 23
-13 33 -10 9 3 23 -1 30 -10 7 -8 23 -15 36 -15 12 0 26 -4 29 -10 3 -5 17
-10 30 -10 13 0 27 -4 30 -10 3 -5 21 -10 40 -10 19 0 37 -4 40 -10 3 -5 24
-10 46 -10 21 0 39 -4 39 -10 0 -5 18 -10 40 -10 22 0 40 -4 40 -10 0 -5 18
-10 39 -10 22 0 43 -4 46 -10 3 -5 21 -10 40 -10 19 0 37 -4 40 -10 3 -5 28
-10 55 -10 26 0 50 -4 52 -9 2 -5 29 -11 61 -14 32 -2 63 -9 69 -15 7 -7 36
-12 64 -12 29 0 56 -5 59 -10 3 -6 39 -10 79 -10 39 0 76 -4 81 -9 6 -6 58
-11 118 -12 59 -1 107 -5 107 -10 0 -20 907 -36 1125 -20 355 28 615 69 950
152 349 87 742 220 1005 340 524 239 964 511 1360 839 163 135 589 557 742
734 335 389 628 849 856 1346 107 232 150 342 237 605 161 480 246 893 286
1383 14 171 6 1074 -10 1137 -6 22 -13 88 -17 148 -4 59 -11 107 -15 107 -5 0
-9 36 -9 79 0 44 -4 83 -10 86 -5 3 -10 30 -10 60 0 30 -4 57 -10 60 -5 3 -10
33 -10 66 0 33 -4 59 -10 59 -5 0 -10 22 -10 49 0 28 -4 53 -10 56 -5 3 -10
21 -10 40 0 19 -4 37 -10 40 -5 3 -10 21 -10 39 0 17 -5 37 -12 44 -6 6 -13
26 -15 44 -2 18 -8 37 -13 42 -6 6 -10 27 -10 48 0 21 -4 38 -10 38 -5 0 -10
18 -10 40 0 22 -4 40 -10 40 -5 0 -10 13 -10 29 0 17 -4 33 -10 36 -5 3 -10
17 -10 30 0 13 -4 27 -10 30 -5 3 -10 17 -10 30 0 13 -4 27 -10 30 -5 3 -10
17 -10 30 0 13 -4 27 -10 30 -5 3 -10 19 -10 36 0 16 -4 29 -10 29 -5 0 -10
14 -10 30 0 17 -4 30 -10 30 -5 0 -10 13 -10 29 0 16 -7 34 -15 41 -8 7 -15
21 -15 31 0 10 -9 34 -20 54 -11 20 -20 42 -20 50 0 8 -9 30 -20 50 -11 20
-20 42 -20 50 0 8 -9 30 -20 50 -11 20 -20 42 -20 50 0 8 -4 15 -10 15 -5 0
-10 9 -10 20 0 11 -4 20 -10 20 -5 0 -10 9 -10 20 0 11 -4 20 -10 20 -5 0 -10
9 -10 20 0 11 -4 20 -10 20 -5 0 -10 13 -10 29 0 17 -4 32 -9 36 -6 3 -28 44
-51 90 -23 46 -45 87 -50 90 -5 3 -31 52 -59 109 -28 56 -60 111 -71 121 -11
10 -17 21 -15 26 3 4 1 10 -4 14 -12 7 -41 64 -41 79 0 7 -9 18 -20 26 -11 8
-20 21 -20 30 0 9 -9 22 -20 30 -11 8 -20 21 -20 30 0 9 -9 22 -20 30 -11 8
-20 22 -20 31 0 9 -9 24 -20 34 -11 10 -20 23 -20 30 0 6 -11 22 -25 35 -13
12 -22 26 -20 30 2 4 -7 18 -20 30 -14 13 -25 29 -25 35 0 6 -13 24 -30 40
-16 16 -30 34 -30 40 0 6 -13 24 -30 40 -16 16 -30 34 -30 40 0 6 -20 31 -45
55 -25 24 -45 49 -45 55 0 6 -27 37 -60 70 -33 33 -60 64 -60 70 0 13 -592
605 -605 605 -6 0 -37 27 -70 60 -33 33 -64 60 -70 60 -6 0 -31 20 -55 45 -24
25 -49 45 -55 45 -6 0 -24 14 -40 30 -16 17 -35 30 -43 30 -8 0 -27 14 -42 30
-15 17 -34 30 -42 30 -7 0 -20 9 -28 20 -8 11 -21 20 -29 20 -7 0 -24 11 -37
25 -13 14 -30 25 -38 25 -9 0 -21 9 -28 20 -7 11 -20 20 -28 20 -9 0 -22 9
-30 20 -8 11 -22 20 -31 20 -9 0 -24 9 -34 20 -10 11 -24 20 -30 20 -7 0 -18
7 -25 15 -7 8 -37 27 -69 41 -31 15 -68 39 -83 53 -16 13 -28 21 -28 17 0 -5
-7 -3 -15 4 -23 19 -106 60 -122 60 -7 0 -13 5 -13 10 0 6 -8 10 -18 10 -10 0
-24 9 -32 20 -8 11 -22 20 -32 20 -10 0 -18 5 -18 10 0 6 -9 10 -20 10 -11 0
-20 5 -20 10 0 6 -7 10 -15 10 -8 0 -30 9 -50 20 -20 11 -41 20 -49 20 -15 0
-98 41 -121 60 -8 7 -15 9 -15 5 0 -5 -8 -2 -17 6 -28 22 -61 39 -78 39 -8 0
-15 5 -15 10 0 6 -13 10 -30 10 -16 0 -30 5 -30 10 0 6 -9 10 -20 10 -11 0
-20 5 -20 10 0 6 -11 10 -25 10 -13 0 -40 9 -60 20 -20 11 -44 20 -55 20 -10
0 -22 5 -25 10 -3 6 -19 10 -36 10 -16 0 -29 5 -29 10 0 6 -13 10 -30 10 -16
0 -30 5 -30 10 0 6 -13 10 -29 10 -17 0 -33 5 -36 10 -3 6 -17 10 -29 10 -13
0 -29 6 -36 14 -6 8 -18 12 -26 9 -8 -3 -23 2 -34 12 -11 10 -26 15 -34 12 -8
-3 -20 1 -26 9 -7 8 -23 14 -36 14 -12 0 -26 5 -29 10 -3 6 -24 10 -46 10 -21
0 -39 5 -39 10 0 6 -18 10 -40 10 -22 0 -40 5 -40 10 0 6 -18 10 -39 10 -22 0
-43 5 -46 10 -3 6 -21 10 -40 10 -19 0 -37 5 -40 10 -3 6 -24 10 -46 10 -21 0
-39 5 -39 10 0 6 -22 10 -49 10 -28 0 -53 5 -56 10 -3 6 -30 10 -60 10 -30 0
-57 5 -60 10 -3 6 -33 10 -65 10 -32 0 -62 5 -65 10 -3 6 -39 10 -80 10 -41 0
-77 5 -80 10 -4 6 -53 10 -114 10 -84 0 -111 3 -121 15 -11 13 -80 15 -510 15
-430 0 -499 -2 -510 -15z m1135 -2086 c5 -5 34 -9 65 -9 31 0 60 -4 66 -9 5
-5 27 -11 49 -13 22 -2 45 -7 51 -11 6 -3 26 -8 45 -9 19 -1 40 -8 48 -16 7
-7 26 -12 41 -10 15 1 35 -4 44 -11 9 -7 27 -11 41 -9 14 3 30 -1 36 -8 6 -8
22 -14 35 -14 12 0 26 -4 29 -10 3 -5 17 -10 30 -10 13 0 27 -4 30 -10 3 -5
19 -10 36 -10 16 0 29 -4 29 -10 0 -5 11 -10 25 -10 13 0 40 -9 60 -20 20 -11
42 -20 50 -20 8 0 30 -9 50 -20 20 -11 47 -20 60 -20 14 0 25 -4 25 -10 0 -5
9 -10 20 -10 11 0 20 -4 20 -10 0 -5 9 -10 20 -10 11 0 20 -4 20 -10 0 -5 6
-10 13 -10 15 0 179 -81 202 -100 8 -7 15 -9 15 -4 0 4 12 -3 28 -17 34 -30
67 -49 87 -49 8 0 15 -4 15 -10 0 -5 8 -10 18 -10 10 0 24 -9 32 -20 8 -11 22
-20 31 -20 9 0 24 -9 34 -20 10 -11 23 -20 30 -20 7 0 20 -9 30 -20 10 -11 23
-20 30 -20 7 0 20 -9 30 -20 10 -11 23 -20 30 -20 6 0 26 -16 45 -35 19 -19
39 -35 45 -35 6 0 24 -13 40 -30 16 -16 34 -30 40 -30 6 0 29 -18 50 -40 21
-22 45 -40 53 -40 8 0 42 -29 75 -65 33 -36 69 -65 79 -65 10 0 18 -6 18 -12
0 -15 -190 -208 -205 -208 -6 0 -59 -47 -118 -105 -59 -58 -111 -105 -117
-105 -5 0 -61 -52 -124 -115 -63 -63 -120 -115 -126 -115 -7 0 -59 -47 -116
-105 -58 -58 -109 -105 -115 -105 -5 0 -63 -52 -127 -115 -64 -63 -121 -115
-127 -115 -6 0 -57 -47 -114 -104 -58 -58 -107 -103 -111 -101 -4 2 -58 -48
-121 -111 -62 -62 -118 -114 -124 -114 -6 0 -57 -47 -115 -105 -58 -58 -109
-105 -115 -105 -6 0 -48 -38 -95 -85 -47 -47 -90 -85 -96 -85 -6 0 -19 -9 -29
-20 -10 -11 -31 -20 -47 -20 -15 0 -28 -4 -28 -10 0 -5 -18 -10 -40 -10 -22 0
-40 -4 -40 -10 0 -5 -9 -10 -20 -10 -13 0 -20 -7 -20 -19 0 -10 -7 -21 -15
-25 -10 -4 -15 -19 -15 -49 0 -27 6 -49 15 -57 8 -7 15 -18 15 -24 0 -6 27
-38 60 -70 33 -33 60 -64 60 -70 0 -6 43 -54 95 -106 52 -52 95 -100 95 -106
0 -6 9 -19 20 -29 11 -10 20 -28 20 -41 0 -13 5 -26 10 -29 6 -4 10 -117 10
-306 0 -193 4 -299 10 -299 6 0 10 -9 10 -20 0 -13 7 -20 19 -20 11 0 23 -4
26 -10 3 -5 28 -10 56 -10 27 0 49 5 49 10 0 6 8 10 18 10 11 0 27 9 37 20 10
11 31 20 46 20 15 0 29 4 31 10 2 5 18 5 43 -3 29 -8 408 -13 1435 -17 767 -3
1397 -6 1399 -8 2 -1 -2 -9 -9 -17 -8 -9 -11 -41 -9 -91 3 -55 0 -79 -9 -82
-8 -2 -12 -25 -12 -62 0 -32 -4 -62 -10 -65 -5 -3 -10 -33 -10 -66 0 -33 -4
-59 -10 -59 -5 0 -10 -22 -10 -49 0 -28 -4 -53 -10 -56 -5 -3 -10 -21 -10 -40
0 -19 -4 -37 -10 -40 -5 -3 -10 -24 -10 -46 0 -21 -4 -39 -10 -39 -5 0 -10
-18 -10 -40 0 -22 -4 -40 -10 -40 -5 0 -10 -13 -10 -29 0 -17 -4 -33 -10 -36
-5 -3 -10 -17 -10 -30 0 -13 -4 -27 -10 -30 -5 -3 -10 -17 -10 -30 0 -13 -4
-27 -10 -30 -5 -3 -10 -17 -10 -30 0 -13 -4 -27 -10 -30 -5 -3 -10 -14 -10
-25 0 -10 -7 -20 -15 -24 -11 -4 -14 -13 -10 -29 5 -17 2 -26 -9 -30 -9 -4
-16 -16 -16 -27 0 -11 -4 -20 -10 -20 -5 0 -10 -13 -10 -30 0 -16 -4 -30 -10
-30 -5 0 -10 -9 -10 -20 0 -11 -4 -20 -10 -20 -5 0 -10 -6 -10 -13 0 -8 -22
-58 -50 -112 -27 -54 -50 -104 -50 -112 0 -7 -4 -13 -10 -13 -5 0 -10 -8 -10
-18 0 -9 -9 -23 -20 -30 -11 -7 -20 -21 -20 -31 0 -10 -7 -21 -15 -25 -8 -3
-15 -15 -15 -26 0 -11 -4 -20 -10 -20 -5 0 -10 -8 -10 -18 0 -10 -9 -24 -20
-32 -11 -8 -20 -21 -20 -30 0 -9 -9 -22 -20 -30 -11 -8 -20 -22 -20 -31 0 -9
-9 -24 -20 -34 -11 -10 -20 -23 -20 -30 0 -7 -9 -20 -20 -30 -11 -10 -20 -23
-20 -30 0 -6 -16 -26 -35 -45 -19 -18 -32 -36 -30 -40 2 -4 -11 -22 -30 -40
-19 -19 -35 -39 -35 -45 0 -6 -18 -29 -40 -50 -22 -21 -40 -44 -40 -50 0 -6
-29 -40 -65 -75 -36 -35 -65 -69 -65 -75 0 -6 -18 -28 -39 -49 l-39 -38 -41
37 c-23 21 -41 43 -41 50 0 7 -47 59 -105 115 -58 57 -105 110 -105 118 0 7
-47 59 -105 114 -58 56 -105 108 -105 116 0 7 -52 64 -115 126 -63 61 -115
117 -115 124 0 7 -45 57 -100 112 -55 55 -100 104 -100 110 0 6 -52 63 -115
125 -63 63 -115 120 -115 127 0 7 -47 59 -105 115 -58 55 -105 107 -105 115 0
7 -52 65 -115 128 -63 63 -115 119 -115 125 0 6 -47 57 -105 115 -58 58 -105
109 -105 115 0 6 -18 29 -40 50 -22 21 -40 44 -40 50 0 7 -9 20 -20 30 -11 10
-20 28 -20 40 0 13 -7 28 -15 35 -9 7 -13 21 -10 30 3 9 -1 23 -10 30 -8 7
-15 18 -15 24 0 16 -49 36 -90 36 -49 0 -86 -20 -140 -75 -24 -25 -49 -45 -55
-45 -6 0 -53 -43 -105 -95 -52 -52 -100 -95 -106 -95 -6 0 -19 -9 -29 -20 -10
-11 -31 -20 -47 -20 -15 0 -28 -4 -28 -10 0 -6 -104 -10 -293 -10 -248 0 -299
-2 -326 -16 -17 -8 -29 -19 -26 -24 3 -4 -2 -13 -10 -20 -10 -8 -15 -31 -15
-65 0 -34 5 -57 15 -65 8 -7 13 -16 10 -20 -2 -4 7 -18 20 -30 14 -13 25 -34
25 -46 0 -13 5 -26 10 -29 13 -8 14 -2825 1 -2825 -6 0 -13 5 -16 10 -3 6 -42
10 -86 10 -46 0 -79 4 -79 10 0 6 -26 10 -59 10 -33 0 -63 5 -66 10 -3 6 -33
10 -66 10 -33 0 -59 4 -59 10 0 6 -22 10 -50 10 -27 0 -50 5 -50 10 0 6 -18
10 -39 10 -22 0 -43 5 -46 10 -3 6 -21 10 -40 10 -19 0 -37 5 -40 10 -3 6 -23
10 -45 10 -25 0 -40 5 -44 15 -4 11 -13 14 -30 9 -17 -4 -27 -1 -34 12 -6 11
-17 15 -30 12 -12 -4 -26 0 -33 8 -6 8 -22 14 -35 14 -12 0 -26 5 -29 10 -3 5
-15 10 -25 10 -11 0 -35 9 -55 20 -20 11 -44 20 -55 20 -10 0 -22 4 -25 10 -3
5 -15 10 -26 10 -10 0 -19 5 -19 10 0 6 -13 10 -30 10 -16 0 -30 5 -30 10 0 6
-9 10 -20 10 -11 0 -20 5 -20 10 0 6 -6 10 -13 10 -15 0 -139 61 -162 80 -8 7
-15 9 -15 5 0 -5 -8 -1 -17 7 -10 8 -35 22 -55 32 -20 9 -40 21 -43 26 -7 12
-65 40 -82 40 -7 0 -13 5 -13 10 0 6 -8 10 -18 10 -10 0 -24 9 -32 20 -8 11
-21 20 -30 20 -9 0 -22 9 -30 20 -8 11 -22 20 -30 20 -9 0 -27 11 -40 25 -12
13 -26 22 -31 20 -4 -3 -16 6 -27 20 -11 14 -27 25 -35 25 -8 0 -27 14 -40 30
-14 17 -32 30 -39 30 -8 0 -27 13 -43 30 -16 16 -34 30 -40 30 -6 0 -31 20
-55 45 -24 24 -47 42 -51 40 -3 -3 -36 27 -72 66 -63 68 -65 72 -51 94 8 13
74 76 146 141 72 66 166 151 208 189 91 82 222 202 450 410 90 83 272 249 405
370 133 121 334 304 446 407 113 103 239 215 280 249 106 88 140 121 150 147
5 12 15 22 24 22 8 0 15 5 15 10 0 6 9 10 20 10 13 0 20 7 20 19 0 11 5 23 10
26 15 9 12 88 -5 121 -8 16 -39 54 -70 84 -30 30 -55 59 -55 65 0 5 -43 53
-95 105 -52 52 -95 102 -95 111 0 9 -9 24 -20 34 -13 11 -18 25 -14 37 3 10 2
23 -1 28 -7 11 -9 51 -20 385 -5 139 -11 212 -19 217 -6 4 -11 15 -11 25 0 11
-9 19 -22 21 -13 2 -23 8 -23 13 0 14 -74 11 -107 -6 -16 -8 -38 -24 -48 -35
-10 -11 -31 -20 -47 -20 -15 0 -28 -4 -28 -10 0 -7 -448 -10 -1324 -10 -1164
0 -1325 2 -1336 15 -7 8 -29 15 -50 15 -20 0 -39 2 -42 5 -7 7 26 217 63 392
67 327 173 630 326 938 170 341 431 724 650 956 l62 67 101 -95 c55 -52 100
-100 100 -107 0 -6 47 -58 104 -115 58 -58 103 -107 101 -111 -2 -4 48 -58
111 -121 62 -62 114 -118 114 -124 0 -6 47 -57 105 -115 58 -58 105 -109 105
-115 0 -6 52 -63 115 -127 63 -64 115 -121 115 -127 0 -6 47 -57 105 -114 58
-58 105 -110 105 -116 0 -6 52 -63 115 -126 63 -63 115 -119 115 -125 0 -5 47
-58 105 -116 58 -59 105 -111 105 -116 0 -5 18 -27 40 -48 22 -21 40 -45 40
-52 0 -7 9 -20 20 -28 12 -8 20 -26 20 -42 0 -15 5 -30 10 -33 6 -3 10 -14 10
-24 0 -31 26 -72 55 -87 31 -16 115 -19 115 -4 0 6 7 10 16 10 9 0 34 16 56
36 22 19 47 34 56 33 56 -5 84 4 140 46 65 49 124 127 121 160 -3 36 11 55 42
55 16 0 29 5 29 11 0 11 133 9 367 -7 96 -7 202 6 248 30 15 8 33 26 41 41 28
55 12 160 -31 195 -13 11 -15 181 -15 1341 0 890 3 1344 11 1377 13 61 52 109
104 127 43 16 221 11 240 -6z m-946 -1346 c1 -825 -2 -1254 -9 -1258 -5 -3
-10 -16 -10 -29 0 -12 -11 -33 -25 -46 -14 -13 -23 -26 -20 -28 7 -8 -26 -42
-40 -42 -7 0 -20 -9 -30 -20 -10 -11 -28 -20 -40 -20 -11 0 -26 -5 -33 -12 -6
-6 -29 -11 -52 -11 -23 0 -46 5 -52 11 -7 7 -24 12 -38 12 -14 0 -32 9 -40 20
-8 11 -20 20 -28 20 -16 0 -82 65 -82 81 0 6 -47 58 -105 115 -58 57 -105 109
-105 115 0 6 -52 63 -115 127 -63 63 -115 120 -115 126 0 6 -48 58 -105 116
-58 58 -105 110 -105 115 0 6 -45 55 -100 110 -55 55 -100 104 -100 110 0 6
-52 62 -115 125 -63 63 -115 119 -115 125 0 6 -47 57 -105 115 -58 58 -105
109 -105 115 0 6 -52 62 -115 125 -63 63 -115 120 -115 127 0 7 -18 32 -39 55
-44 46 -43 55 6 98 98 87 368 268 549 368 423 235 820 374 1297 455 l192 33 7
-50 c3 -28 6 -614 7 -1303z m3498 -200 c7 -6 13 -16 13 -20 0 -5 16 -24 35
-43 19 -19 35 -39 35 -45 0 -7 9 -20 20 -30 11 -10 20 -23 20 -30 0 -7 9 -20
20 -30 11 -10 20 -23 20 -30 0 -7 9 -20 20 -30 11 -10 20 -24 20 -30 0 -7 7
-18 15 -25 9 -7 25 -32 36 -54 27 -55 43 -82 60 -103 22 -28 39 -61 39 -78 0
-8 5 -15 10 -15 6 0 10 -9 10 -20 0 -11 5 -20 10 -20 6 0 10 -9 10 -20 0 -11
5 -20 10 -20 6 0 10 -9 10 -20 0 -11 5 -20 10 -20 6 0 10 -6 10 -14 0 -8 14
-40 30 -71 17 -31 30 -63 30 -71 0 -16 17 -49 39 -76 7 -10 11 -24 8 -32 -4
-9 -2 -18 3 -21 15 -9 40 -67 40 -92 0 -12 5 -23 10 -23 6 0 10 -13 10 -30 0
-16 5 -30 10 -30 6 0 10 -13 10 -29 0 -17 5 -33 10 -36 6 -3 10 -17 10 -30 0
-13 5 -27 10 -30 6 -3 10 -21 10 -40 0 -19 5 -37 10 -40 6 -3 10 -24 10 -46 0
-21 5 -39 10 -39 6 0 10 -18 10 -39 0 -22 5 -43 10 -46 6 -3 10 -26 10 -50 0
-24 5 -47 10 -50 6 -3 10 -33 10 -66 0 -33 4 -59 10 -59 6 0 10 -26 10 -59 0
-38 5 -63 14 -70 10 -9 14 -33 14 -81 0 -40 4 -76 11 -84 7 -8 11 -30 9 -48
l-3 -33 -1344 -3 c-890 -1 -1348 1 -1355 8 -5 5 -19 10 -30 10 -11 0 -30 10
-42 21 -13 12 -34 27 -46 33 -13 6 -24 20 -26 30 -2 11 -12 28 -23 39 -23 25
-19 47 28 143 44 91 96 149 312 346 97 89 297 272 445 407 147 135 306 280
352 321 46 41 142 129 214 195 72 66 173 158 225 205 51 47 171 156 267 242
180 164 174 160 215 121z m-4463 -2694 c14 -11 26 -17 26 -13 0 4 9 -1 20 -11
11 -10 20 -23 20 -30 0 -7 9 -20 20 -30 11 -10 20 -28 20 -40 0 -11 5 -26 11
-32 16 -16 17 -112 1 -125 -7 -7 -11 -19 -9 -29 3 -10 -5 -27 -19 -40 -13 -12
-24 -27 -24 -33 -1 -16 -68 -86 -83 -86 -7 0 -59 -47 -117 -105 -58 -58 -109
-105 -115 -105 -6 0 -62 -52 -124 -114 -63 -63 -117 -113 -121 -111 -4 2 -53
-43 -111 -101 -57 -57 -108 -104 -114 -104 -6 0 -62 -52 -125 -115 -63 -63
-119 -115 -125 -115 -6 0 -57 -47 -115 -105 -58 -58 -109 -105 -115 -105 -6 0
-57 -47 -115 -105 -58 -58 -111 -105 -118 -105 -8 0 -64 -52 -125 -115 -61
-63 -117 -115 -124 -115 -8 0 -46 -32 -85 -72 l-70 -71 -34 36 c-19 19 -34 41
-34 47 0 6 -16 24 -35 41 -19 17 -35 39 -35 48 0 9 -9 23 -20 31 -11 8 -20 21
-20 30 0 9 -9 22 -20 30 -11 8 -20 22 -20 32 0 10 -4 18 -9 18 -5 0 -16 16
-25 35 -9 19 -21 37 -26 40 -5 3 -23 34 -40 69 -16 35 -37 69 -45 76 -8 7 -15
18 -15 25 0 7 -7 18 -15 25 -8 7 -13 16 -10 20 3 5 1 11 -4 15 -13 7 -41 64
-41 82 0 7 -4 13 -10 13 -5 0 -10 9 -10 20 0 11 -4 20 -10 20 -5 0 -10 9 -10
20 0 11 -4 20 -10 20 -5 0 -10 7 -10 15 0 8 -9 30 -20 50 -11 20 -20 42 -20
50 0 8 -9 30 -20 50 -11 20 -20 47 -20 60 0 14 -4 25 -10 25 -5 0 -10 9 -10
20 0 11 -4 20 -10 20 -5 0 -10 13 -10 29 0 17 -4 33 -10 36 -5 3 -10 17 -10
30 0 13 -4 27 -10 30 -5 3 -10 17 -10 30 0 13 -4 27 -10 30 -5 3 -10 19 -10
36 0 16 -4 29 -10 29 -5 0 -10 18 -10 39 0 22 -4 43 -10 46 -5 3 -10 21 -10
39 0 19 -6 39 -14 45 -7 6 -11 22 -8 36 2 14 -1 32 -8 40 -7 8 -14 34 -15 58
-2 23 -15 107 -29 187 -15 81 -24 158 -20 175 16 79 62 128 138 145 17 5 585
8 1262 9 1231 1 1231 1 1258 -20z m1836 -820 c0 -5 13 -9 28 -9 16 0 37 -9 47
-20 10 -11 23 -20 29 -20 15 -1 86 -68 86 -81 0 -6 47 -56 105 -112 58 -55
105 -107 105 -115 0 -7 52 -64 115 -126 63 -62 115 -119 115 -125 0 -6 45 -56
100 -111 55 -55 100 -105 100 -112 0 -7 47 -58 105 -114 58 -56 105 -109 105
-117 0 -7 52 -64 115 -125 63 -61 115 -117 115 -124 0 -8 47 -61 105 -118 58
-56 105 -108 105 -114 0 -6 52 -63 115 -126 63 -63 115 -119 115 -125 0 -6 27
-37 60 -70 33 -33 60 -64 60 -69 0 -6 12 -23 27 -38 l27 -28 -29 -30 c-16 -16
-34 -30 -40 -30 -6 0 -24 -13 -40 -30 -16 -17 -34 -30 -40 -30 -6 0 -22 -11
-35 -25 -13 -14 -29 -25 -35 -25 -7 0 -20 -9 -30 -20 -10 -11 -25 -20 -34 -20
-9 0 -23 -9 -31 -20 -8 -11 -21 -20 -30 -20 -9 0 -22 -9 -30 -20 -8 -11 -22
-20 -32 -20 -10 0 -18 -4 -18 -10 0 -5 -9 -10 -20 -10 -11 0 -20 -4 -20 -10 0
-5 -8 -10 -19 -10 -10 0 -24 -7 -31 -15 -7 -9 -29 -23 -49 -32 -20 -9 -44 -23
-53 -31 -10 -8 -18 -12 -18 -7 0 4 -7 2 -15 -5 -23 -19 -147 -80 -162 -80 -7
0 -13 -4 -13 -10 0 -5 -9 -10 -20 -10 -11 0 -20 -4 -20 -10 0 -5 -13 -10 -30
-10 -16 0 -30 -4 -30 -10 0 -5 -9 -10 -20 -10 -11 0 -20 -4 -20 -10 0 -5 -11
-10 -25 -10 -13 0 -40 -9 -60 -20 -20 -11 -44 -20 -55 -20 -10 0 -22 -4 -25
-10 -3 -6 -17 -10 -29 -10 -13 0 -29 -7 -36 -15 -7 -9 -20 -13 -28 -10 -8 3
-23 -2 -33 -11 -10 -9 -25 -14 -33 -11 -9 4 -22 0 -30 -8 -8 -8 -30 -15 -50
-15 -19 0 -38 -4 -41 -10 -3 -5 -21 -10 -40 -10 -19 0 -37 -4 -40 -10 -3 -5
-21 -10 -40 -10 -19 0 -37 -4 -40 -10 -3 -5 -28 -10 -56 -10 -27 0 -49 -4 -49
-10 0 -6 -26 -10 -59 -10 -33 0 -63 -4 -66 -10 -3 -5 -33 -10 -66 -10 -33 0
-59 -4 -59 -10 0 -6 -35 -10 -85 -10 -50 0 -85 -4 -85 -10 0 -12 -40 -13 -58
-2 -10 7 -12 255 -10 1258 l3 1249 22 58 c12 32 37 83 54 114 25 43 30 63 26
91 -5 42 9 62 47 62 13 0 26 6 29 13 5 14 97 11 97 -4z"/>
</g>
</svg>
